<svg xmlns="http://www.w3.org/2000/svg" viewBox="0 0 64 64" role="img" aria-label="United States">
  <defs>
    <clipPath id="clip-us">
      <circle cx="32" cy="32" r="32" />
    </clipPath>
  </defs>
  <g clip-path="url(#clip-us)">
    <rect width="64" height="64" fill="#ffffff" />
    <rect y="0" width="64" height="5" fill="#b22234" />
    <rect y="10" width="64" height="5" fill="#b22234" />
    <rect y="20" width="64" height="5" fill="#b22234" />
    <rect y="30" width="64" height="5" fill="#b22234" />
    <rect y="40" width="64" height="5" fill="#b22234" />
    <rect y="50" width="64" height="5" fill="#b22234" />
    <rect y="60" width="64" height="5" fill="#b22234" />
    <rect width="30" height="28" fill="#3c3b6e" />
    <g fill="#ffffff">
      <circle cx="6" cy="6" r="1.6" />
      <circle cx="14" cy="6" r="1.6" />
      <circle cx="22" cy="6" r="1.6" />
      <circle cx="10" cy="12" r="1.6" />
      <circle cx="18" cy="12" r="1.6" />
      <circle cx="26" cy="12" r="1.6" />
      <circle cx="6" cy="18" r="1.6" />
      <circle cx="14" cy="18" r="1.6" />
      <circle cx="22" cy="18" r="1.6" />
      <circle cx="10" cy="24" r="1.6" />
      <circle cx="18" cy="24" r="1.6" />
      <circle cx="26" cy="24" r="1.6" />
    </g>
  </g>
</svg>